# xmcd
#
# Track frame offsets:
#	150
#	21749
#	32776
#	52623
#	64320
#	84431
#	100091
#	118371
#	137290
#	147609
#	162917
#	180254
#	203837
#	209830
#	227887
# Disc length: 3325 seconds
# Revision: 1
# Processed by: cddbd v1.5.1PL0 Copyright (c) Steve Scherf et al.
#
# Submitted via: libkcddb 0.10
#
DISCID=d90cfb0f
DTITLE=Bill Gaither Trio - The King is Coming
DYEAR=2000
DGENRE=Gospel
TTITLE0=Something Good is About to Happen
TTITLE1=
TTITLE2=
TTITLE3=
TTITLE4=
TTITLE5=
TTITLE6=
TTITLE7=
TTITLE8=
TTITLE9=
TTITLE10=
TTITLE11=
TTITLE12=
TTITLE13=
TTITLE14=
EXTD=
EXTT0=
EXTT1=
EXTT2=
EXTT3=
EXTT4=
EXTT5=
EXTT6=
EXTT7=
EXTT8=
EXTT9=
EXTT10=
EXTT11=
EXTT12=
EXTT13=
EXTT14=
PLAYORDER=
